<svg id="Layer_1" data-name="Layer 1" xmlns="http://www.w3.org/2000/svg" viewBox="0 0 64 64"><g id="PLBmVZ.tif"><path d="M62.73,10.57c-.28,2.43-.56,4.82-.83,7.21q-.46,4.06-.94,8.14c-.31,2.71-.63,5.42-.94,8.14q-.42,3.57-.82,7.16c-.33,2.88-.66,5.75-1,8.63a.74.74,0,0,1-.39.45c-3.65,2-7.32,4.06-11,6.09-4.47,2.47-8.93,4.93-13.38,7.42a1.12,1.12,0,0,1-1.25,0q-12-6.68-24.08-13.32a1.35,1.35,0,0,1-.77-1.18c-.3-2.79-.64-5.58-1-8.37l-1-9q-.47-4-1-8.09c-.31-2.67-.61-5.35-.92-8-.17-1.48-.34-3-.52-4.43-.1-.8-.12-.8.61-1.06Q18,5.2,32.34.08a1.51,1.51,0,0,1,.94,0L62.34,10.41ZM14,49c2.35,0,4.57,0,6.79,0,.16,0,.37-.26.45-.44q1.72-4.23,3.4-8.47a.61.61,0,0,1,.67-.46H40.22a.61.61,0,0,1,.68.45c1.11,2.83,2.26,5.65,3.38,8.48A.63.63,0,0,0,45,49c2,0,4,0,6.06,0,.14,0,.28,0,.48,0l-18.69-42C26.52,21,20.29,34.92,14,49Z"/><path d="M38.22,33.68H27.4l5.41-13Z"/></g></svg>