<svg id="Layer_1" data-name="Layer 1" xmlns="http://www.w3.org/2000/svg" viewBox="0 0 64 64"><path d="M32.24,63.82h-.5a1.39,1.39,0,0,0-.69-.26q-10.64-3-21.28-5.94A.87.87,0,0,1,9,56.7c-.13-1.75-.28-3.49-.44-5.23L7.37,38.09c-.35-4-.69-8-1-12-.39-4.48-.8-9-1.2-13.44-.35-4-.69-8-1-12C4-.18,4-.18,4.83-.18h54.3a3.23,3.23,0,0,0,.44,0c.36,0,.41.14.38.45l-1,11.44L57.85,23.78q-.52,5.94-1,11.88L55.73,47.8c-.27,3-.54,6-.78,9a.85.85,0,0,1-.75.87q-8.91,2.45-17.79,5A42.53,42.53,0,0,0,32.24,63.82ZM32,11.59H14.81c-.3,0-.57,0-.53.43.14,1.81.27,3.62.36,5.43,0,.64.22.86.91.85,8.16-.06,16.33-.07,24.49-.1h1.63c.27,0,.41,0,.39.38-.17,2.12-.32,4.24-.47,6.36,0,.31-.14.44-.46.44-.73,0-1.46,0-2.19,0-7.58.09-15.15.19-22.73.26-.6,0-.8.13-.73.75.23,1.8.42,3.6.58,5.4,0,.47.21.58.65.57l18.74-.07c1.67,0,3.34,0,5,0,.38,0,.5.08.45.49-.33,2.9-.64,5.79-.94,8.69-.05.4-.14.67-.61.79-2.32.59-4.63,1.22-6.93,1.85a1.57,1.57,0,0,1-.86,0c-2.31-.63-4.62-1.26-6.93-1.86a.69.69,0,0,1-.59-.72c-.13-1.56-.3-3.11-.41-4.67,0-.49-.16-.68-.69-.67-2,0-3.91,0-5.87,0-.46,0-.64.1-.57.59.11.83.16,1.66.24,2.49q.35,3.86.68,7.71a.69.69,0,0,0,.59.73c4.53,1.23,9.06,2.49,13.59,3.75a1.3,1.3,0,0,0,.73,0Q39.19,49.6,46,47.71a.56.56,0,0,0,.49-.59c.06-.9.15-1.79.23-2.68q.74-8,1.46-16c.48-5.37.93-10.74,1.43-16.11.06-.63-.11-.71-.66-.71Z"/></svg>