<svg id="Layer_1" data-name="Layer 1" xmlns="http://www.w3.org/2000/svg" viewBox="0 0 64 64"><g id="_0GzPAn" data-name="0GzPAn"><path d="M42.86,1.27A3.93,3.93,0,0,1,41,4.67c-2.16,1.24-3.24,2.94-2.58,5.58-.39-.13-.66-.2-.93-.31a30.18,30.18,0,0,0-15.91-2,16.07,16.07,0,0,0-10.39,5.18A12.2,12.2,0,0,1,3.83,17a4.8,4.8,0,0,0-1.49.47c-1.78.95-3,3.72-2,4.92,1.31,1.48,2.32,3.25,3.8,4.51.95.81,1.73,1.41,1.59,2.73,0,0,.1.07.25.19L7.2,28.54l.12,2.28.33.16c.47-.59.91-1.2,1.42-1.76a2.33,2.33,0,0,1,1-.76,18.8,18.8,0,0,1,19.47,7.88,18.35,18.35,0,0,1,3,7.61c-.64-.39-1.22-.82-1.86-1.13a1.11,1.11,0,0,0-1.73.63,21.34,21.34,0,0,1-1.77,2.71L27,46l-.29-2.72c-.65,1.26-1.16,2.33-1.76,3.34a1.35,1.35,0,0,1-.91.58,3.12,3.12,0,0,1-3.31-4.29,1.39,1.39,0,0,0-1.1-2.08,4,4,0,0,0-4.84,3.1c-.58,2.61.41,4.79,2.07,6.73.18.21.37.41.6.66-.43.1-.75.16-1.07.26s-.55.22-1.09.44c4.95,2.61,9.73,3.11,14.61.89a15.92,15.92,0,0,0,9-11.27c.89,6.64-1.45,11.89-6.84,15.84l.18.32,7.41-1.92a28.77,28.77,0,0,1-9.41,7.81c8.9-.77,15.66-5,20.58-12.44a37.45,37.45,0,0,1-1.63,4.93c-.67,1.58-1.56,3.06-2.36,4.58A25.53,25.53,0,0,0,58,44.19h.27l.34,7.06a27,27,0,0,0,4.86-21.4A32.74,32.74,0,0,0,54.93,13a12.16,12.16,0,0,1-2.34,6,11.18,11.18,0,0,1-5.2,3.82,10.39,10.39,0,0,1-6.22.28C48,20.83,51.23,16.74,50.76,11A11.11,11.11,0,0,0,42.86,1.27Zm-5.2,7.87a5,5,0,0,1,2.61-4.8c.19-.13.36-.29.54-.43a1.16,1.16,0,0,0,.33-1.5A3.74,3.74,0,0,0,36.41.57C38.29,2.17,38.17,4,37.19,6A3,3,0,0,0,37.66,9.14Z"/><path d="M42.86,1.27A11.11,11.11,0,0,1,50.76,11c.47,5.75-2.79,9.84-9.59,12.09a10.39,10.39,0,0,0,6.22-.28A11.18,11.18,0,0,0,52.59,19a12.16,12.16,0,0,0,2.34-6,32.74,32.74,0,0,1,8.53,16.83,27,27,0,0,1-4.86,21.4l-.34-7.06H58A25.53,25.53,0,0,1,46.91,60.76c.8-1.52,1.69-3,2.36-4.58a37.45,37.45,0,0,0,1.63-4.93C46,58.66,39.22,62.92,30.32,63.69a28.77,28.77,0,0,0,9.41-7.81L32.32,57.8l-.18-.32c5.39-3.95,7.73-9.2,6.84-15.84a15.92,15.92,0,0,1-9,11.27c-4.88,2.22-9.66,1.72-14.61-.89.54-.22.81-.35,1.09-.44s.64-.16,1.07-.26c-.23-.25-.42-.45-.6-.66-1.66-1.94-2.65-4.12-2.07-6.73a4,4,0,0,1,4.84-3.1,1.39,1.39,0,0,1,1.1,2.08,3.12,3.12,0,0,0,3.31,4.29,1.35,1.35,0,0,0,.91-.58c.6-1,1.11-2.08,1.76-3.34L27,46l.23.16A21.34,21.34,0,0,0,29,43.45a1.11,1.11,0,0,1,1.73-.63c.64.31,1.22.74,1.86,1.13a18.35,18.35,0,0,0-3-7.61,18.8,18.8,0,0,0-19.47-7.88,2.33,2.33,0,0,0-1,.76c-.51.56-1,1.17-1.42,1.76l-.33-.16L7.2,28.54,6,29.85c-.15-.12-.25-.16-.25-.19.14-1.32-.64-1.92-1.59-2.73-1.48-1.26-2.49-3-3.8-4.51-1-1.2.21-4,2-4.92A4.8,4.8,0,0,1,3.83,17a12.2,12.2,0,0,0,7.36-3.94A16.07,16.07,0,0,1,21.58,7.91a30.18,30.18,0,0,1,15.91,2c.27.11.54.18.93.31-.66-2.64.42-4.34,2.58-5.58A3.93,3.93,0,0,0,42.86,1.27Z"/><path d="M37.66,9.14A3,3,0,0,1,37.19,6c1-2,1.1-3.84-.78-5.44a3.74,3.74,0,0,1,4.73,1.84,1.16,1.16,0,0,1-.33,1.5c-.18.14-.35.3-.54.43A5,5,0,0,0,37.66,9.14Z"/></g></svg>