<svg id="Layer_1" data-name="Layer 1" xmlns="http://www.w3.org/2000/svg" viewBox="0 0 64 64"><g id="cYXIkl.tif"><path d="M23.69,22.31h9.64V12.2H23.69Z"/><path d="M-.17,51.89V12.14c2.8,0,5.52.07,8.24,0a2.4,2.4,0,0,1,2.47,1.43c4.1,7,8.29,14,12.46,21,.15.25.2.6.63.76v-10c.4.11.47.4.61.62L31.34,37c.26.4.44.7.11,1.21-2.61,4-5.19,8.11-7.77,12.17a3.24,3.24,0,0,1-.33.35c-4.53-7.36-9-14.66-13.55-22-.09.09-.17.13-.17.17q0,11.48,0,23Z"/><path d="M23.89,51.89A29.55,29.55,0,0,1,26,48.45c2.26-3.59,4.54-7.16,6.83-10.77L23.59,23.22c3.22,0,6.25,0,9.29,0,.49,0,.66.32.87.65q1.78,2.82,3.59,5.64c.33,0,.39-.3.52-.47a14.3,14.3,0,0,1,14.91-5.38A14.85,14.85,0,0,1,63.49,35.51c0,.13.16.8.16.8a4.49,4.49,0,0,1,.07,2.18,2.27,2.27,0,0,1-2.51,1.25,1.55,1.55,0,0,1-1.27-1.41c0-1.74-1-2.42-2.48-2.83a5.24,5.24,0,0,1-3.31-2.62,4.47,4.47,0,0,0-2.85-2.24,7.22,7.22,0,0,0-8.79,4.9A4.14,4.14,0,0,0,43,39.35c1.71,2.47,3.27,5,4.86,7.59,1,1.64,2.18,3.21,3,5H41.57L37.38,45.6l-4.11,6.29Z"/><path d="M63.72,41.47a9.36,9.36,0,0,1-.63.92.86.86,0,0,1-1.37.12c-.46-.47-.17-.92.24-1.25A11.63,11.63,0,0,0,63.72,40Z"/><path d="M23.69,22.31V12.2h9.64V22.31Z"/><path d="M59.35,38.42a1.44,1.44,0,0,1-.44,0c-1.23-.61-2.29-1.59-3.87-1.32-.51.09-1-.53-1.25-1a6.32,6.32,0,0,0-8.38-2.76c-.2.09-.39.16-.57,0,.54-1.35,3.82-2.51,5.57-2.13a4.31,4.31,0,0,1,3.2,2,6.47,6.47,0,0,0,4.17,3.18A1.85,1.85,0,0,1,59.35,38.42Z"/><path d="M52.76,35.64a4.22,4.22,0,0,1-2.62-.36,5.51,5.51,0,0,0-5.55.13c-.07,0-.2,0-.3,0a4,4,0,0,1,3.08-2A5.58,5.58,0,0,1,52.76,35.64Z"/></g></svg>