<svg id="Layer_1" data-name="Layer 1" xmlns="http://www.w3.org/2000/svg" viewBox="0 0 64 64"><path d="M38.08,43.19l7.85,6.72-.14.26c-.39,0-.77.08-1.16.08-2.35,0-4.69,0-7,0a2.24,2.24,0,0,1-1.88-.8c-1.2-1.35-2.52-2.59-3.65-4a3.14,3.14,0,0,0-2.14-1.18,11.17,11.17,0,0,1-9.75-8.82,13.44,13.44,0,0,1,3.59-13.41,11.31,11.31,0,0,1,7.12-3.16,12.4,12.4,0,0,1,9.6,2.68,11.51,11.51,0,0,1,4.05,7.25A14.46,14.46,0,0,1,43,38.47,11.44,11.44,0,0,1,38.08,43.19ZM36.56,32c0-2.38-.13-3.3-1-4.6a4,4,0,0,0-2-1.69c-2.28-.52-3.81,0-4.91,2.24A10.37,10.37,0,0,0,28,30.77a7.76,7.76,0,0,0,.9,5.19,3.9,3.9,0,0,0,6.56.27A6.7,6.7,0,0,0,36.56,32Z"/><path d="M.56,43.27v-6.8c1.59.66,3.07,1.4,4.63,1.88a9.77,9.77,0,0,0,3.06.26,1.46,1.46,0,0,0,1.43-1.06,1.42,1.42,0,0,0-.58-1.67,21.32,21.32,0,0,0-2-1.11,36.12,36.12,0,0,1-3.84-1.91,7.32,7.32,0,0,1,.93-12.72A15.67,15.67,0,0,1,12.91,19a39.24,39.24,0,0,1,4,.77v6.49c-.62-.25-1.11-.42-1.58-.62a10.78,10.78,0,0,0-5.14-.85c-.82.05-1.58.28-1.83,1.1a1.53,1.53,0,0,0,1,1.86c1.05.5,2.11,1,3.16,1.47a10.62,10.62,0,0,1,5.11,4.19,7.52,7.52,0,0,1-2.41,9.31,12.6,12.6,0,0,1-5.31,1.76A19.75,19.75,0,0,1,.56,43.27Z"/><path d="M55.65,38H64v5.87H48V19.25h7.64Z"/></svg>