<svg id="Layer_1" data-name="Layer 1" xmlns="http://www.w3.org/2000/svg" viewBox="0 0 64 64"><path d="M32,0c5.2,6.64,10.94,12.91,13.49,21.18,3.72,12.06.57,22.48-7.75,31.59C36.6,54,35.15,54.9,34.2,56.2a7.79,7.79,0,0,0-.84,3.23c-.18,1.11-.11,2.27-.35,3.36-.1.46-.7.81-1.08,1.21-.36-.38-1-.72-1-1.14-.27-1.84-.34-3.72-.55-5.57a2,2,0,0,0-.63-1.15C21.18,48.69,16.1,39.64,17.06,28c.6-7.41,3.92-13.78,8.31-19.63C27.48,5.53,29.71,2.83,32,0Zm.16,23h-.28a2.36,2.36,0,0,0-.11.44c-.47,10.15-1,20.31-1.33,30.46,0,.64,1,1.32,1.52,2,.55-.71,1.6-1.43,1.58-2.12-.26-8.22-.67-16.43-1-24.63C32.36,27.09,32.23,25.05,32.12,23Z"/></svg>