<svg id="Layer_1" data-name="Layer 1" xmlns="http://www.w3.org/2000/svg" viewBox="0 0 64 64"><path d="M3.94,0H60.06c-.15,1.51-.3,3-.44,4.54q-.42,4.65-.83,9.28c-.23,2.56-.45,5.11-.67,7.67l-.84,9.28c-.27,3-.52,6.06-.79,9.09l-.84,9.22c-.24,2.68-.49,5.36-.7,8a.72.72,0,0,1-.63.74c-7.26,2-14.52,4.06-21.78,6.07a2.19,2.19,0,0,1-1.08,0L10.23,58C9,57.66,9.07,57.66,9,56.44c-.2-2.6-.44-5.2-.67-7.79-.27-3.08-.55-6.15-.82-9.22C7.25,36.85,7,34.28,6.8,31.7c-.27-3.13-.56-6.27-.83-9.4-.23-2.54-.45-5.07-.67-7.61C5,11.6,4.75,8.51,4.46,5.41,4.3,3.61,4.12,1.8,3.94,0ZM14.36,11.79c.11,1.3.22,2.52.33,3.75.22,2.57.44,5.15.67,7.72.27,3.06.58,6.1.81,9.16,0,.63.2.83.86.83q11.4,0,22.8,0h.73a2.42,2.42,0,0,1,0,.26q-.37,4.17-.74,8.34a.64.64,0,0,1-.57.67l-6.88,1.85a1.51,1.51,0,0,1-.73,0c-2.35-.63-4.69-1.29-7-1.91a.58.58,0,0,1-.49-.6c-.12-1.6-.27-3.2-.39-4.8,0-.46-.16-.66-.67-.65-2,0-4,0-5.95,0-.17,0-.35,0-.56.05,0,.33,0,.6,0,.87.11,1.29.23,2.58.34,3.86.18,2,.36,4,.53,6.05a.77.77,0,0,0,.66.81c4.45,1.22,8.9,2.48,13.36,3.7a2,2,0,0,0,1,0c4.46-1.22,8.9-2.47,13.36-3.68a.87.87,0,0,0,.71-.92q.38-4.36.77-8.72c.28-3.2.57-6.4.85-9.59.08-.91.13-1.82.21-2.81H22.76l-.63-7.13h7.21c6.32,0,12.65,0,19,0,.56,0,.75-.14.77-.72.05-1.17.22-2.33.32-3.49.08-1,.14-1.94.22-2.94Z"/></svg>