<svg id="Layer_1" data-name="Layer 1" xmlns="http://www.w3.org/2000/svg" viewBox="0 0 64 64"><g id="gYPFzm.tif"><path d="M30.91,0h2A21.78,21.78,0,0,1,35.7,2q13,13,26,26A8.64,8.64,0,0,1,64,31.08v2a9.73,9.73,0,0,1-2.58,3.29l-25,25A9.73,9.73,0,0,1,33.09,64h-2a8.23,8.23,0,0,1-3-2.2c-1.16-1.2-2.37-2.35-3.55-3.53Q13.29,47,2,35.7a21.78,21.78,0,0,1-2-2.78v-2a7.72,7.72,0,0,1,2.09-2.85q8.82-8.79,17.61-17.59c.21-.21.44-.41.69-.65,2.36,2.36,4.69,4.67,7,7a1,1,0,0,1,.08.82,4.84,4.84,0,0,0,2.3,5.57,1,1,0,0,1,.55,1c0,5.4,0,10.8,0,16.2a1.08,1.08,0,0,1-.65,1.09,4.65,4.65,0,0,0-2.39,4.23,4.86,4.86,0,0,0,9.35,1.81,4.77,4.77,0,0,0-1.76-5.89,1.2,1.2,0,0,1-.59-1.14c0-5.27,0-10.53,0-15.79v-.89c.34.3.54.47.73.65,1.77,1.77,3.52,3.56,5.32,5.3a1.35,1.35,0,0,1,.42,1.51,4.84,4.84,0,1,0,3.68-3.69,1,1,0,0,1-1.07-.32q-3.06-3.09-6.15-6.15A1,1,0,0,1,36.87,20a4.82,4.82,0,0,0-5.73-5.77,1,1,0,0,1-1.09-.34L23.62,7.49c-.15-.15-.28-.33-.44-.52,1.66-1.65,3.28-3.25,4.88-4.88A7.64,7.64,0,0,1,30.91,0Z"/></g></svg>